<svg version="1.1" viewBox="0.0 0.0 45.0 45.0" fill="none" stroke="none" stroke-linecap="square" stroke-miterlimit="10" xmlns:xlink="http://www.w3.org/1999/xlink" xmlns="http://www.w3.org/2000/svg"><clipPath id="p.0"><path d="m0 0l45.0 0l0 45.0l-45.0 0l0 -45.0z" clip-rule="nonzero"/></clipPath><g clip-path="url(#p.0)"><path fill="#000000" fill-opacity="0.0" d="m0 0l45.0 0l0 45.0l-45.0 0z" fill-rule="evenodd"/><path fill="#000000" d="m38.06559 42.062992l0 -21.466616l0 0c0 -9.1033325 -7.3797092 -16.483044 -16.483042 -16.483044l-5.5327053 0l0 -2.8692393l-7.338582 8.054828l7.338582 8.054828l0 -2.869238l5.5327053 0l0 0c3.3754902 0 6.111864 2.7363758 6.111864 6.111864l0 21.466616z" fill-rule="evenodd"/><path stroke="#000000" stroke-width="1.0" stroke-linejoin="round" stroke-linecap="butt" d="m38.06559 42.062992l0 -21.466616l0 0c0 -9.1033325 -7.3797092 -16.483044 -16.483042 -16.483044l-5.5327053 0l0 -2.8692393l-7.338582 8.054828l7.338582 8.054828l0 -2.869238l5.5327053 0l0 0c3.3754902 0 6.111864 2.7363758 6.111864 6.111864l0 21.466616z" fill-rule="evenodd"/></g></svg>